# xmcd CD database file
#
# Track frame offsets:
#	150
#	21690
#	38572
#	56620
#	73725
#	91487
#	109047
#	129755
#	146957
#	168180
#	182942
#	196450
#	211490
#	224180
#	238552
#
# Disc length: 3378 seconds
#
# Revision: 0
# Processed by: cddbd v1.4PL0 Copyright (c) Steve Scherf et al.
# Submitted via: Feurio! 1.63 - http://www.feurio.com
#
DISCID=ea0d300f
DTITLE=Gloria Gaynor - The Three Degrees - Gladys Knight - Ladies Of Soul
DYEAR=1991
DGENRE=Folk
TTITLE0=The Three Degrees  - A Woman in Love
TTITLE1=The Three Degrees  - My Simple Heart
TTITLE2=The Three Degrees  - Jump The Gun
TTITLE3=The Three Degrees  - The Runner
TTITLE4=The Three Degrees  - Givin Up, Givin In
TTITLE5=Gladys Knight and The Pips - So Sad The Song
TTITLE6=Gladys Knight and The Pips - Try To Remember/The Way We Were
TTITLE7=Gladys Knight and The Pips - The Best Thing That Ever Happened To Me
TTITLE8=Gladys Knight and The Pips - Midnight Train to Georgia
TTITLE9=Gladys Knight and The Pips - Baby Don't Change Your Mind
TTITLE10=Gloria Gaynor  - Never Can Say Goodbye
TTITLE11=Gloria Gaynor  - Reach Out, I'll Be There
TTITLE12=Gloria Gaynor  - All I Need Is Your Sweet Loving
TTITLE13=Gloria Gaynor  - How High The Moon
TTITLE14=Gloria Gaynor  - I Will Survive
EXTD=
EXTT0=
EXTT1=
EXTT2=
EXTT3=
EXTT4=
EXTT5=
EXTT6=
EXTT7=
EXTT8=
EXTT9=
EXTT10=
EXTT11=
EXTT12=
EXTT13=
EXTT14=
PLAYORDER=
